Coordinates
version=1
nRows=16
nColumns=63
inDegrees=yes

Units are S.I. units (second, meters, Newtons, ...)
If the header above contains a line with 'inDegrees', this indicates whether rotational values are in degrees (yes) or radians (no).

endheader
time	pelvis_tilt	pelvis_list	pelvis_rotation	pelvis_tx	pelvis_ty	pelvis_tz	hip_flexion_r	hip_adduction_r	hip_rotation_r	knee_angle_r	knee_angle_r_beta	ankle_angle_r	subtalar_angle_r	mtp_angle_r	hip_flexion_l	hip_adduction_l	hip_rotation_l	knee_angle_l	knee_angle_l_beta	ankle_angle_l	subtalar_angle_l	mtp_angle_l	L5_S1_Flex_Ext	L5_S1_Lat_Bending	L5_S1_axial_rotation	L4_L5_Flex_Ext	L4_L5_Lat_Bending	L4_L5_axial_rotation	L3_L4_Flex_Ext	L3_L4_Lat_Bending	L3_L4_axial_rotation	L2_L3_Flex_Ext	L2_L3_Lat_Bending	L2_L3_axial_rotation	L1_L2_Flex_Ext	L1_L2_Lat_Bending	L1_L2_axial_rotation	L1_T12_Flex_Ext	L1_T12_Lat_Bending	L1_T12_axial_rotation	Abs_r3	Abs_r2	Abs_r1	Abs_t1	Abs_t2	neck_flexion	neck_bending	neck_rotation	arm_flex_r	arm_add_r	arm_rot_r	elbow_flex_r	pro_sup_r	wrist_flex_r	wrist_dev_r	arm_flex_l	arm_add_l	arm_rot_l	elbow_flex_l	pro_sup_l	wrist_flex_l	wrist_dev_l
1.270833	6.219645	-17.248034	107.747938	0.308835	0.919107	0.670767	8.476969	6.437581	5.553005	0.504712	0.008809	24.186610	-5.479771	0.000000	12.259854	-5.470294	21.462420	7.115977	0.124197	27.375435	-15.335895	0.000000	0.014373	0.365886	0.983200	0.026692	0.486629	1.044649	0.023613	0.889616	1.044649	0.016427	0.889616	0.860300	0.013347	0.746115	0.798850	0.008213	0.566758	0.737400	0.102663	4.138979	5.468261	0.000000	0.000000	22.275935	1.632151	-11.767768	7.036753	-0.262012	41.245753	100.405827	86.464720	-17.387732	8.255613	-4.174377	-11.537027	6.071720	109.730494	85.419469	-10.981799	7.610941
1.291667	6.286706	-17.788525	107.887345	0.309007	0.918599	0.670810	9.026385	6.366037	4.726619	0.507370	0.008855	24.475133	-4.568411	0.000000	12.817421	-5.366610	21.631817	7.073493	0.123456	27.163381	-15.326105	0.000000	0.027164	0.404885	0.791488	0.050446	0.538497	0.840956	0.044628	0.984437	0.840956	0.031046	0.984437	0.692552	0.025225	0.825641	0.643084	0.015522	0.627167	0.593616	0.194030	4.580138	4.402020	0.000000	0.000000	21.953588	1.401222	-11.283946	6.711311	-1.041723	40.744809	101.313823	86.293777	-16.109019	7.195787	-3.734633	-11.351462	6.920207	110.607174	85.940803	-10.991134	8.812278
1.312500	6.235180	-18.325944	107.749371	0.309373	0.918163	0.670693	9.533002	6.226493	4.063701	0.530824	0.009265	24.752500	-3.591026	0.000000	13.305023	-5.202245	21.620283	7.063172	0.123276	26.931160	-15.376553	0.000000	0.044236	0.435489	0.600622	0.082150	0.579200	0.638161	0.072675	1.058848	0.638161	0.050557	1.058848	0.525544	0.041077	0.888049	0.488005	0.025276	0.674572	0.450466	0.315972	4.926337	3.340478	0.000000	0.000000	21.507409	1.148444	-10.327863	6.522635	-1.910562	39.972683	102.341961	86.191263	-14.491541	6.496712	-3.257986	-11.068892	7.827007	111.489015	86.162572	-11.222619	10.357130
1.333333	6.052739	-18.874823	107.262515	0.309999	0.917759	0.670429	10.021447	6.014711	3.635380	0.587192	0.010248	24.997893	-2.548437	0.000000	13.727000	-4.978475	21.342598	7.073985	0.123464	26.680888	-15.475590	0.000000	0.066347	0.455967	0.432645	0.123213	0.606436	0.459685	0.109002	1.108638	0.459685	0.075828	1.108638	0.378564	0.061610	0.929807	0.351524	0.037911	0.706292	0.324484	0.473910	5.157987	2.406241	0.000000	0.000000	21.025815	0.871998	-8.899470	6.426037	-2.786330	38.863071	103.449793	86.146044	-12.634716	6.060602	-2.726214	-10.708694	8.798809	112.294742	86.101534	-11.584571	12.045686
1.354167	5.731233	-19.434103	106.431091	0.310875	0.917356	0.670082	10.498933	5.731565	3.509874	0.678610	0.011844	25.170088	-1.567843	0.000000	14.094532	-4.695630	20.758552	7.109411	0.124083	26.436952	-15.568883	0.000000	0.091054	0.464645	0.300150	0.169096	0.617978	0.318909	0.149592	1.129738	0.318909	0.104065	1.129738	0.262631	0.084552	0.947504	0.243872	0.052028	0.719735	0.225112	0.650387	5.256157	1.669343	0.000000	0.000000	20.600977	0.572151	-7.057891	6.363509	-3.595002	37.350931	104.618396	85.959818	-10.589190	5.895738	-2.089851	-10.299466	9.860941	112.953433	85.764998	-11.955951	13.723130
1.375000	5.268375	-19.993562	105.231503	0.312011	0.916944	0.669719	10.967785	5.387127	3.729569	0.807718	0.014097	25.246868	-0.690942	0.000000	14.404878	-4.364498	19.814688	7.165193	0.125056	26.211782	-15.622433	0.000000	0.115699	0.460449	0.220785	0.214864	0.612397	0.234584	0.190082	1.119536	0.234584	0.132232	1.119536	0.193187	0.107438	0.938948	0.179388	0.066110	0.713236	0.165589	0.826425	5.208693	1.227940	0.000000	0.000000	20.294928	0.209817	-4.948121	6.269464	-4.265866	35.422128	105.808185	85.482983	-8.412027	5.990410	-1.313017	-9.855935	11.018462	113.425075	85.191846	-12.239693	15.298637
1.395833	4.666816	-20.554859	103.655932	0.313407	0.916505	0.669444	11.448483	4.990671	4.296746	0.983053	0.017158	25.232059	0.080698	0.000000	14.674524	-3.990437	18.516802	7.246650	0.126478	26.011897	-15.652828	0.000000	0.140004	0.442339	0.214265	0.260001	0.588310	0.227657	0.230012	1.075502	0.227657	0.160011	1.075502	0.187482	0.130008	0.902017	0.174091	0.079998	0.685183	0.160699	1.000034	5.003823	1.191680	0.000000	0.000000	20.131774	-0.168994	-2.687652	6.058807	-4.735493	33.075256	107.002386	84.806180	-6.230420	6.396440	-0.353292	-9.421043	12.335286	113.672783	84.365198	-12.430659	16.684239
1.416667	3.928799	-21.102406	101.748717	0.315025	0.916044	0.669381	11.944847	4.542582	5.175479	1.198810	0.020923	25.142833	0.748178	0.000000	14.915632	-3.570172	16.914422	7.356880	0.128402	25.839618	-15.682037	0.000000	0.161377	0.409309	0.287141	0.299693	0.544382	0.305088	0.265126	0.995195	0.305088	0.184438	0.995195	0.251249	0.149855	0.834664	0.233302	0.092211	0.634020	0.215356	1.152698	4.630191	1.596993	0.000000	0.000000	20.108289	-0.598136	-0.465602	5.680780	-4.978379	30.334205	108.197212	84.174496	-4.084302	7.142172	0.832542	-9.045153	13.878735	113.687843	83.251555	-12.507878	17.800621
1.437500	3.071368	-21.619697	99.543122	0.316858	0.915577	0.669641	12.467647	4.060043	6.331318	1.454356	0.025383	25.004293	1.335595	0.000000	15.129841	-3.116970	15.032821	7.474859	0.130461	25.698387	-15.702759	0.000000	0.178590	0.361931	0.443098	0.331660	0.481368	0.470792	0.293406	0.879999	0.470792	0.204111	0.879999	0.387711	0.165839	0.738050	0.360017	0.102046	0.560631	0.332324	1.275652	4.094236	2.464380	0.000000	0.000000	20.192193	-1.030830	1.581619	5.130538	-5.044134	27.272448	109.409356	83.824403	-2.075985	8.157939	2.242552	-8.746101	15.685984	113.468055	81.884066	-12.512100	18.549977
1.458333	2.107372	-22.090984	97.063061	0.318905	0.915115	0.670252	13.025986	3.556488	7.762677	1.750853	0.030558	24.841475	1.848994	0.000000	15.304737	-2.649145	12.818877	7.560407	0.131954	25.610481	-15.605960	0.000000	0.191175	0.301493	0.672844	0.355031	0.400986	0.714897	0.314081	0.733050	0.714897	0.218494	0.733050	0.588739	0.177525	0.614805	0.546686	0.109237	0.467013	0.504633	1.365542	3.410549	3.742158	0.000000	0.000000	20.384480	-1.440695	3.430977	4.465875	-5.015867	24.053280	110.648401	83.744254	-0.375793	9.379199	3.788012	-8.497922	17.659116	113.072980	80.540713	-12.492361	18.912234
1.479167	1.056679	-22.507190	94.436835	0.321049	0.914682	0.671280	13.618766	3.034627	9.318842	2.071949	0.036162	24.693212	2.354953	0.000000	15.469325	-2.154423	10.529841	7.630873	0.133184	25.536657	-15.582705	0.000000	0.198711	0.228923	0.972405	0.369025	0.304468	1.033181	0.326462	0.556604	1.033181	0.227106	0.556604	0.850855	0.184523	0.466821	0.790079	0.113543	0.354602	0.729304	1.419370	2.589627	5.408226	0.000000	0.000000	20.634063	-1.896045	4.828964	3.658203	-4.961847	20.656126	111.916493	83.882746	1.045336	10.479384	5.526805	-8.274862	19.924405	112.464115	79.040406	-12.597546	18.885716
1.500000	-0.021129	-22.861711	91.787509	0.323203	0.914284	0.672657	14.228646	2.526184	10.987570	2.403548	0.041950	24.558737	2.735463	0.000000	15.623878	-1.674862	8.091486	7.677310	0.133994	25.537082	-15.361221	0.000000	0.201961	0.151700	1.296701	0.375062	0.201761	1.377745	0.331802	0.368843	1.377745	0.230821	0.368843	1.134613	0.187541	0.309346	1.053570	0.115401	0.234983	0.972526	1.442589	1.716058	7.211863	0.000000	0.000000	20.974436	-2.317901	6.017902	2.851706	-4.967662	17.426637	113.139380	84.195470	1.852501	11.321679	7.312365	-8.006514	22.210366	111.758357	77.731085	-12.743317	18.741028
1.520833	-1.143815	-23.172664	89.128214	0.325401	0.913926	0.674403	14.883043	2.021747	12.670140	2.750143	0.047999	24.473195	3.137699	0.000000	15.787883	-1.191288	5.598038	7.684796	0.134125	25.560377	-15.055368	0.000000	0.202367	0.066935	1.641307	0.375816	0.089024	1.743889	0.332469	0.162746	1.743889	0.231286	0.162746	1.436144	0.187918	0.136494	1.333562	0.115633	0.103682	1.230980	1.445489	0.757182	9.128458	0.000000	0.000000	21.408644	-2.694412	6.948502	2.085544	-5.062589	14.534496	114.213713	84.835503	1.715138	11.436395	9.143956	-7.669860	24.512639	110.925866	76.574570	-13.045713	18.402569
1.541667	-2.246792	-23.435199	86.644670	0.327467	0.913608	0.676388	15.534463	1.524640	14.267737	3.077719	0.053716	24.432553	3.492694	0.000000	15.959789	-0.718097	3.125973	7.660163	0.133695	25.634147	-14.546755	0.000000	0.199981	-0.018008	1.953305	0.371384	-0.023951	2.075387	0.328548	-0.043785	2.075387	0.228558	-0.043785	1.709142	0.185702	-0.036722	1.587060	0.114269	-0.027894	1.464979	1.428441	-0.203710	10.863697	0.000000	0.000000	21.932210	-3.037736	7.767452	1.500656	-5.307765	12.230884	115.092449	85.576950	0.608909	10.976646	10.908080	-7.232094	26.603097	110.019726	75.693187	-13.355342	17.942437
1.562500	-3.320377	-23.647988	84.360618	0.329394	0.913318	0.678441	16.154875	1.044268	15.823067	3.368060	0.058784	24.421659	3.708063	0.000000	16.109974	-0.259661	0.720797	7.574869	0.132206	25.734126	-13.878715	0.000000	0.195068	-0.103546	2.230541	0.362260	-0.137716	2.369950	0.320477	-0.251761	2.369950	0.222943	-0.251761	1.951724	0.181140	-0.211150	1.812315	0.111462	-0.160392	1.672906	1.393350	-1.171329	12.405601	0.000000	0.000000	22.528681	-3.304819	8.330258	1.087114	-5.739618	10.558615	115.804687	86.458776	-1.374268	10.071821	12.547944	-6.695100	28.440112	109.048165	75.073419	-13.644734	17.362165
1.583333	-4.306278	-23.841382	82.366033	0.331094	0.913007	0.680478	16.752113	0.598289	17.180061	3.603164	0.062887	24.458776	3.918720	0.000000	16.262205	0.164148	-1.549041	7.416960	0.129450	25.861552	-13.027178	0.000000	0.193425	-0.182667	2.438967	0.359210	-0.242947	2.591402	0.317778	-0.444136	2.591402	0.221066	-0.444136	2.134096	0.179615	-0.372494	1.981660	0.110523	-0.282951	1.829225	1.381617	-2.066361	13.564801	0.000000	0.000000	23.169491	-3.494714	8.900909	0.932015	-6.373310	9.625132	116.318496	87.345401	-3.728719	9.092297	13.876681	-6.041415	29.811634	108.131685	74.897372	-13.841254	16.795473
